<svg enable-background="new 0 0 515.458 515.458" height="515.458" viewBox="0 0 515.458 515.458" width="515.458" xmlns="http://www.w3.org/2000/svg"><path d="m298.794 386.711c27.805 9.522 52.357 15.587 87.633 26.427-13.552 171.236-175.475 103.233-87.633-26.427zm144.572-157.302c-1.826-51.415-10.882-118.86-83.017-108.292-33.815 8.825-58.8 45.962-70.551 110.035-6.454 35.229-2.701 84.678 4.912 114.32 6.951 20.889 4.587 19.605 12.058 23.572 28.916 6.514 57.542 13.725 86.693 21.078 29.614-20.913 53.936-131.94 49.905-160.713zm-222.614-3.946c7.607-29.646 11.36-79.095 4.909-114.32-11.742-64.076-36.73-101.219-70.551-110.038-72.135-10.568-81.191 56.876-83.017 108.294-4.031 28.768 20.294 139.802 49.911 160.711 29.149-7.353 57.771-14.558 86.696-21.078 7.462-3.963 5.098-2.68 12.052-23.569zm-91.723 67.669c13.547 171.234 175.47 103.231 87.63-26.427-27.805 9.523-52.355 15.587-87.63 26.427z"/></svg>